<?xml version="1.0" encoding="utf-8"?>
<!-- Generator: Adobe Illustrator 25.0.0, SVG Export Plug-In . SVG Version: 6.00 Build 0)  -->
<svg version="1.1" id="Layer_1" xmlns="http://www.w3.org/2000/svg" xmlns:xlink="http://www.w3.org/1999/xlink" x="0px" y="0px"
	 viewBox="0 0 255.1 566.9" style="enable-background:new 0 0 255.1 566.9;" xml:space="none" preserveAspectRatio="xMinYMax slice">
<style type="text/css">
	.st0{clip-path:url(#SVGID_2_);fill-rule:evenodd;clip-rule:evenodd;fill:#EE93B5;}
	.st1{clip-path:url(#SVGID_4_);fill-rule:evenodd;clip-rule:evenodd;fill:#CB7185;}
	.st2{clip-path:url(#SVGID_6_);fill-rule:evenodd;clip-rule:evenodd;fill:#F797BE;}
	.st3{clip-path:url(#SVGID_8_);fill-rule:evenodd;clip-rule:evenodd;fill:#F396B8;}
	.st4{clip-path:url(#SVGID_10_);fill-rule:evenodd;clip-rule:evenodd;fill:#D37387;}
	.st5{clip-path:url(#SVGID_12_);fill-rule:evenodd;clip-rule:evenodd;fill:#D2F0EF;}
	.st6{clip-path:url(#SVGID_14_);fill-rule:evenodd;clip-rule:evenodd;fill:#D2F0EF;}
	.st7{clip-path:url(#SVGID_16_);fill-rule:evenodd;clip-rule:evenodd;fill:#D2F0EF;}
	.st8{clip-path:url(#SVGID_18_);fill-rule:evenodd;clip-rule:evenodd;fill:#D2F0EF;}
	.st9{clip-path:url(#SVGID_20_);fill-rule:evenodd;clip-rule:evenodd;fill:#F797BE;}
	.st10{clip-path:url(#SVGID_22_);fill-rule:evenodd;clip-rule:evenodd;fill:#F797BE;}
	.st11{clip-path:url(#SVGID_24_);fill-rule:evenodd;clip-rule:evenodd;fill:#F797BE;}
	.st12{clip-path:url(#SVGID_26_);fill-rule:evenodd;clip-rule:evenodd;fill:#F396B8;}
	.st13{clip-path:url(#SVGID_28_);fill-rule:evenodd;clip-rule:evenodd;fill:#F396B8;}
	.st14{clip-path:url(#SVGID_30_);fill-rule:evenodd;clip-rule:evenodd;fill:#D37387;}
	.st15{clip-path:url(#SVGID_32_);fill-rule:evenodd;clip-rule:evenodd;fill:#D37387;}
	.st16{clip-path:url(#SVGID_34_);fill-rule:evenodd;clip-rule:evenodd;fill:#CB7185;}
	.st17{clip-path:url(#SVGID_36_);fill-rule:evenodd;clip-rule:evenodd;fill:#D37387;}
	.st18{clip-path:url(#SVGID_38_);fill-rule:evenodd;clip-rule:evenodd;fill:#D2F0EF;}
	.st19{clip-path:url(#SVGID_40_);fill-rule:evenodd;clip-rule:evenodd;fill:#D2F0EF;}
	.st20{clip-path:url(#SVGID_42_);fill-rule:evenodd;clip-rule:evenodd;fill:#D2F0EF;}
	.st21{clip-path:url(#SVGID_44_);fill-rule:evenodd;clip-rule:evenodd;fill:#F797BE;}
	.st22{clip-path:url(#SVGID_46_);fill-rule:evenodd;clip-rule:evenodd;fill:#F797BE;}
	.st23{clip-path:url(#SVGID_48_);fill-rule:evenodd;clip-rule:evenodd;fill:#F797BE;}
	.st24{clip-path:url(#SVGID_50_);fill-rule:evenodd;clip-rule:evenodd;fill:#D37387;}
	.st25{clip-path:url(#SVGID_52_);fill-rule:evenodd;clip-rule:evenodd;fill:#D37387;}
	.st26{clip-path:url(#SVGID_54_);fill-rule:evenodd;clip-rule:evenodd;fill:#EE93B5;}
	.st27{clip-path:url(#SVGID_56_);fill-rule:evenodd;clip-rule:evenodd;fill:#F797BE;}
	.st28{clip-path:url(#SVGID_58_);fill-rule:evenodd;clip-rule:evenodd;fill:#F396B8;}
	.st29{clip-path:url(#SVGID_60_);fill-rule:evenodd;clip-rule:evenodd;fill:#D2F0EF;}
	.st30{clip-path:url(#SVGID_62_);fill-rule:evenodd;clip-rule:evenodd;fill:#D2F0EF;}
	.st31{clip-path:url(#SVGID_64_);fill-rule:evenodd;clip-rule:evenodd;fill:#D2F0EF;}
	.st32{clip-path:url(#SVGID_66_);fill-rule:evenodd;clip-rule:evenodd;fill:#F797BE;}
	.st33{clip-path:url(#SVGID_68_);fill-rule:evenodd;clip-rule:evenodd;fill:#F797BE;}
	.st34{clip-path:url(#SVGID_70_);fill-rule:evenodd;clip-rule:evenodd;fill:#F396B8;}
	.st35{clip-path:url(#SVGID_72_);fill-rule:evenodd;clip-rule:evenodd;fill:#F396B8;}
	.st36{clip-path:url(#SVGID_74_);fill-rule:evenodd;clip-rule:evenodd;fill:#D2F0EF;}
	.st37{clip-path:url(#SVGID_76_);fill-rule:evenodd;clip-rule:evenodd;fill:#9ED3D5;}
	.st38{clip-path:url(#SVGID_78_);fill-rule:evenodd;clip-rule:evenodd;fill:#D9F7F3;}
	.st39{clip-path:url(#SVGID_80_);fill-rule:evenodd;clip-rule:evenodd;fill:#9ED3D5;}
	.st40{clip-path:url(#SVGID_82_);fill-rule:evenodd;clip-rule:evenodd;fill:#D9F7F3;}
	.st41{clip-path:url(#SVGID_84_);fill-rule:evenodd;clip-rule:evenodd;fill:#D9F7F3;}
	.st42{clip-path:url(#SVGID_86_);fill-rule:evenodd;clip-rule:evenodd;fill:#DBFAFA;}
	.st43{clip-path:url(#SVGID_88_);fill-rule:evenodd;clip-rule:evenodd;fill:#9ED3D5;}
	.st44{clip-path:url(#SVGID_90_);fill-rule:evenodd;clip-rule:evenodd;fill:#D9F7F3;}
	.st45{clip-path:url(#SVGID_92_);fill-rule:evenodd;clip-rule:evenodd;fill:#9ED3D5;}
	.st46{clip-path:url(#SVGID_94_);fill-rule:evenodd;clip-rule:evenodd;fill:#D2F0EF;}
	.st47{clip-path:url(#SVGID_96_);fill-rule:evenodd;clip-rule:evenodd;fill:#9ED3D5;}
	.st48{clip-path:url(#SVGID_98_);fill-rule:evenodd;clip-rule:evenodd;fill:#D9F7F3;}
	.st49{clip-path:url(#SVGID_100_);fill-rule:evenodd;clip-rule:evenodd;fill:#DBFAFA;}
	.st50{clip-path:url(#SVGID_102_);fill-rule:evenodd;clip-rule:evenodd;fill:#9ED3D5;}
	.st51{clip-path:url(#SVGID_104_);fill-rule:evenodd;clip-rule:evenodd;fill:#D9F7F3;}
	.st52{clip-path:url(#SVGID_106_);fill-rule:evenodd;clip-rule:evenodd;fill:#9ED3D5;}
	.st53{clip-path:url(#SVGID_108_);fill-rule:evenodd;clip-rule:evenodd;fill:#D2F0EF;}
	.st54{clip-path:url(#SVGID_110_);fill-rule:evenodd;clip-rule:evenodd;fill:#D9F7F3;}
	.st55{clip-path:url(#SVGID_112_);fill-rule:evenodd;clip-rule:evenodd;fill:#9ED3D5;}
	.st56{clip-path:url(#SVGID_114_);fill-rule:evenodd;clip-rule:evenodd;fill:#D9F7F3;}
	.st57{clip-path:url(#SVGID_116_);fill-rule:evenodd;clip-rule:evenodd;fill:#D9F7F3;}
	.st58{clip-path:url(#SVGID_118_);fill-rule:evenodd;clip-rule:evenodd;fill:#D2F0EF;}
</style>
<g>
	<g>
		<g>
			<defs>
				<polyline id="SVGID_1_" points="0,0 255.1,0 255.1,566.9 0,566.9 0,0 				"/>
			</defs>
			<clipPath id="SVGID_2_">
				<use xlink:href="#SVGID_1_"  style="overflow:visible;"/>
			</clipPath>
			<polyline class="st0" points="80,175.8 80,129.3 92,141.3 87.8,146.9 96,145.4 127.6,177.2 127.6,223.8 80,175.8 			"/>
		</g>
	</g>
	<g>
		<g>
			<defs>
				<polyline id="SVGID_3_" points="0,0 255.1,0 255.1,566.9 0,566.9 0,0 				"/>
			</defs>
			<clipPath id="SVGID_4_">
				<use xlink:href="#SVGID_3_"  style="overflow:visible;"/>
			</clipPath>
			<polyline class="st1" points="127.6,177.2 159.1,145.4 167.3,146.9 163.1,141.3 175.1,129.3 175.1,175.8 127.6,223.8 
				127.6,177.2 			"/>
		</g>
	</g>
	<g>
		<g>
			<defs>
				<polyline id="SVGID_5_" points="0,0 255.1,0 255.1,566.9 0,566.9 0,0 				"/>
			</defs>
			<clipPath id="SVGID_6_">
				<use xlink:href="#SVGID_5_"  style="overflow:visible;"/>
			</clipPath>
			<polyline class="st2" points="94.9,93.6 93.4,99.5 92.7,105.6 93.1,111.7 94.3,117.7 96.4,123.4 101.1,123.2 105.7,122.6 
				103.1,126 97.8,131.4 77.6,111.1 94.9,93.6 			"/>
		</g>
	</g>
	<g>
		<g>
			<defs>
				<polyline id="SVGID_7_" points="0,0 255.1,0 255.1,566.9 0,566.9 0,0 				"/>
			</defs>
			<clipPath id="SVGID_8_">
				<use xlink:href="#SVGID_7_"  style="overflow:visible;"/>
			</clipPath>
			<polyline class="st3" points="98.6,132.2 92,141.3 77.6,126.8 77.6,111.1 98.6,132.2 			"/>
		</g>
	</g>
	<g>
		<g>
			<defs>
				<polyline id="SVGID_9_" points="0,0 255.1,0 255.1,566.9 0,566.9 0,0 				"/>
			</defs>
			<clipPath id="SVGID_10_">
				<use xlink:href="#SVGID_9_"  style="overflow:visible;"/>
			</clipPath>
			<polyline class="st4" points="127.6,161.4 143.4,145.4 147.7,156.1 147.7,156 147.7,156.8 127.6,177.2 127.6,161.4 			"/>
		</g>
	</g>
	<g>
		<g>
			<defs>
				<polyline id="SVGID_11_" points="0,0 255.1,0 255.1,566.9 0,566.9 0,0 				"/>
			</defs>
			<clipPath id="SVGID_12_">
				<use xlink:href="#SVGID_11_"  style="overflow:visible;"/>
			</clipPath>
			<polyline class="st5" points="97.8,131.4 103.1,126 98.6,132.2 97.8,131.4 			"/>
		</g>
	</g>
	<g>
		<g>
			<defs>
				<polyline id="SVGID_13_" points="0,0 255.1,0 255.1,566.9 0,566.9 0,0 				"/>
			</defs>
			<clipPath id="SVGID_14_">
				<use xlink:href="#SVGID_13_"  style="overflow:visible;"/>
			</clipPath>
			<polyline class="st6" points="107.4,81.1 127.6,101.4 147.7,81.1 154.7,88.1 150.1,89.5 145.6,91.6 141.5,94.2 137.8,97.3 
				134.7,101 132,105.2 123.1,105.2 120.4,101 117.3,97.3 113.6,94.2 109.5,91.6 105,89.5 100.4,88.1 107.4,81.1 			"/>
		</g>
	</g>
	<g>
		<g>
			<defs>
				<polyline id="SVGID_15_" points="0,0 255.1,0 255.1,566.9 0,566.9 0,0 				"/>
			</defs>
			<clipPath id="SVGID_16_">
				<use xlink:href="#SVGID_15_"  style="overflow:visible;"/>
			</clipPath>
			<polyline class="st7" points="152,126 157.3,131.4 156.5,132.2 152,126 			"/>
		</g>
	</g>
	<g>
		<g>
			<defs>
				<polyline id="SVGID_17_" points="0,0 255.1,0 255.1,566.9 0,566.9 0,0 				"/>
			</defs>
			<clipPath id="SVGID_18_">
				<use xlink:href="#SVGID_17_"  style="overflow:visible;"/>
			</clipPath>
			<polyline class="st8" points="123.1,117 132,117 137.5,130.7 127.6,120.7 117.6,130.7 123.1,117 			"/>
		</g>
	</g>
	<g>
		<g>
			<defs>
				<polyline id="SVGID_19_" points="0,0 255.1,0 255.1,566.9 0,566.9 0,0 				"/>
			</defs>
			<clipPath id="SVGID_20_">
				<use xlink:href="#SVGID_19_"  style="overflow:visible;"/>
			</clipPath>
			<polyline class="st9" points="127.6,60.8 147.7,81.1 127.6,101.4 107.4,81.1 127.6,60.8 			"/>
		</g>
	</g>
	<g>
		<g>
			<defs>
				<polyline id="SVGID_21_" points="0,0 255.1,0 255.1,566.9 0,566.9 0,0 				"/>
			</defs>
			<clipPath id="SVGID_22_">
				<use xlink:href="#SVGID_21_"  style="overflow:visible;"/>
			</clipPath>
			<polyline class="st10" points="149.4,122.6 154,123.2 158.7,123.4 160.8,117.7 162,111.7 162.3,105.6 161.7,99.5 160.2,93.6 
				177.5,111.1 157.3,131.4 152,126 149.4,122.6 			"/>
		</g>
	</g>
	<g>
		<g>
			<defs>
				<polyline id="SVGID_23_" points="0,0 255.1,0 255.1,566.9 0,566.9 0,0 				"/>
			</defs>
			<clipPath id="SVGID_24_">
				<use xlink:href="#SVGID_23_"  style="overflow:visible;"/>
			</clipPath>
			<polyline class="st11" points="111.7,145.4 117.6,130.7 127.6,120.7 137.5,130.7 143.4,145.4 127.6,161.4 111.7,145.4 			"/>
		</g>
	</g>
	<g>
		<g>
			<defs>
				<polyline id="SVGID_25_" points="0,0 255.1,0 255.1,566.9 0,566.9 0,0 				"/>
			</defs>
			<clipPath id="SVGID_26_">
				<use xlink:href="#SVGID_25_"  style="overflow:visible;"/>
			</clipPath>
			<polyline class="st12" points="97.8,145.1 97.8,147.3 96,145.4 97.8,145.1 			"/>
		</g>
	</g>
	<g>
		<g>
			<defs>
				<polyline id="SVGID_27_" points="0,0 255.1,0 255.1,566.9 0,566.9 0,0 				"/>
			</defs>
			<clipPath id="SVGID_28_">
				<use xlink:href="#SVGID_27_"  style="overflow:visible;"/>
			</clipPath>
			<polyline class="st13" points="107.4,156.8 107.4,156 107.4,156.1 111.7,145.4 127.6,161.4 127.6,177.2 107.4,156.8 			"/>
		</g>
	</g>
	<g>
		<g>
			<defs>
				<polyline id="SVGID_29_" points="0,0 255.1,0 255.1,566.9 0,566.9 0,0 				"/>
			</defs>
			<clipPath id="SVGID_30_">
				<use xlink:href="#SVGID_29_"  style="overflow:visible;"/>
			</clipPath>
			<polyline class="st14" points="157.3,131.4 177.5,111.1 177.5,126.8 163.1,141.3 157.3,133.3 157.3,131.4 			"/>
		</g>
	</g>
	<g>
		<g>
			<defs>
				<polyline id="SVGID_31_" points="0,0 255.1,0 255.1,566.9 0,566.9 0,0 				"/>
			</defs>
			<clipPath id="SVGID_32_">
				<use xlink:href="#SVGID_31_"  style="overflow:visible;"/>
			</clipPath>
			<polyline class="st15" points="157.3,145.1 159.1,145.4 157.3,147.3 157.3,145.1 			"/>
		</g>
	</g>
	<g>
		<g>
			<defs>
				<polyline id="SVGID_33_" points="0,0 255.1,0 255.1,566.9 0,566.9 0,0 				"/>
			</defs>
			<clipPath id="SVGID_34_">
				<use xlink:href="#SVGID_33_"  style="overflow:visible;"/>
			</clipPath>
			<polyline class="st16" points="0,459.6 31.5,427.8 39.7,429.2 35.6,423.7 47.6,411.7 47.6,458.2 0,506.1 0,459.6 			"/>
		</g>
	</g>
	<g>
		<g>
			<defs>
				<polyline id="SVGID_35_" points="0,0 255.1,0 255.1,566.9 0,566.9 0,0 				"/>
			</defs>
			<clipPath id="SVGID_36_">
				<use xlink:href="#SVGID_35_"  style="overflow:visible;"/>
			</clipPath>
			<polyline class="st17" points="0,443.8 15.8,427.8 20.2,438.6 20.2,438.5 20.2,439.3 0,459.6 0,443.8 			"/>
		</g>
	</g>
	<g>
		<g>
			<defs>
				<polyline id="SVGID_37_" points="0,0 255.1,0 255.1,566.9 0,566.9 0,0 				"/>
			</defs>
			<clipPath id="SVGID_38_">
				<use xlink:href="#SVGID_37_"  style="overflow:visible;"/>
			</clipPath>
			<polyline class="st18" points="20.2,363.6 27.2,370.5 22.5,371.9 18.1,373.9 13.9,376.6 10.3,379.8 7.1,383.5 4.4,387.6 0,387.6 
				0,383.9 20.2,363.6 			"/>
		</g>
	</g>
	<g>
		<g>
			<defs>
				<polyline id="SVGID_39_" points="0,0 255.1,0 255.1,566.9 0,566.9 0,0 				"/>
			</defs>
			<clipPath id="SVGID_40_">
				<use xlink:href="#SVGID_39_"  style="overflow:visible;"/>
			</clipPath>
			<polyline class="st19" points="24.4,408.5 29.8,413.9 29,414.7 24.4,408.5 			"/>
		</g>
	</g>
	<g>
		<g>
			<defs>
				<polyline id="SVGID_41_" points="0,0 255.1,0 255.1,566.9 0,566.9 0,0 				"/>
			</defs>
			<clipPath id="SVGID_42_">
				<use xlink:href="#SVGID_41_"  style="overflow:visible;"/>
			</clipPath>
			<polyline class="st20" points="0,399.3 4.4,399.3 10,413.1 0,403 0,399.3 			"/>
		</g>
	</g>
	<g>
		<g>
			<defs>
				<polyline id="SVGID_43_" points="0,0 255.1,0 255.1,566.9 0,566.9 0,0 				"/>
			</defs>
			<clipPath id="SVGID_44_">
				<use xlink:href="#SVGID_43_"  style="overflow:visible;"/>
			</clipPath>
			<polyline class="st21" points="0,383.9 0,343.1 20.2,363.6 0,383.9 			"/>
		</g>
	</g>
	<g>
		<g>
			<defs>
				<polyline id="SVGID_45_" points="0,0 255.1,0 255.1,566.9 0,566.9 0,0 				"/>
			</defs>
			<clipPath id="SVGID_46_">
				<use xlink:href="#SVGID_45_"  style="overflow:visible;"/>
			</clipPath>
			<polyline class="st22" points="21.9,405.1 26.5,405.6 31.1,405.9 33.2,400.1 34.4,394.1 34.8,388.1 34.1,381.9 32.6,376 
				49.9,393.4 29.8,413.9 24.4,408.5 21.9,405.1 			"/>
		</g>
	</g>
	<g>
		<g>
			<defs>
				<polyline id="SVGID_47_" points="0,0 255.1,0 255.1,566.9 0,566.9 0,0 				"/>
			</defs>
			<clipPath id="SVGID_48_">
				<use xlink:href="#SVGID_47_"  style="overflow:visible;"/>
			</clipPath>
			<polyline class="st23" points="0,403 10,413.1 15.8,427.8 0,443.8 0,403 			"/>
		</g>
	</g>
	<g>
		<g>
			<defs>
				<polyline id="SVGID_49_" points="0,0 255.1,0 255.1,566.9 0,566.9 0,0 				"/>
			</defs>
			<clipPath id="SVGID_50_">
				<use xlink:href="#SVGID_49_"  style="overflow:visible;"/>
			</clipPath>
			<polyline class="st24" points="29.8,413.9 49.9,393.4 49.9,409.3 35.6,423.7 29.8,415.7 29.8,413.9 			"/>
		</g>
	</g>
	<g>
		<g>
			<defs>
				<polyline id="SVGID_51_" points="0,0 255.1,0 255.1,566.9 0,566.9 0,0 				"/>
			</defs>
			<clipPath id="SVGID_52_">
				<use xlink:href="#SVGID_51_"  style="overflow:visible;"/>
			</clipPath>
			<polyline class="st25" points="29.8,427.4 31.5,427.8 29.8,429.6 29.8,427.4 			"/>
		</g>
	</g>
	<g>
		<g>
			<defs>
				<polyline id="SVGID_53_" points="0,0 255.1,0 255.1,566.9 0,566.9 0,0 				"/>
			</defs>
			<clipPath id="SVGID_54_">
				<use xlink:href="#SVGID_53_"  style="overflow:visible;"/>
			</clipPath>
			<polyline class="st26" points="207.5,458.2 207.5,411.7 219.5,423.7 215.4,429.2 223.6,427.8 255.1,459.6 255.1,506.1 
				207.5,458.2 			"/>
		</g>
	</g>
	<g>
		<g>
			<defs>
				<polyline id="SVGID_55_" points="0,0 255.1,0 255.1,566.9 0,566.9 0,0 				"/>
			</defs>
			<clipPath id="SVGID_56_">
				<use xlink:href="#SVGID_55_"  style="overflow:visible;"/>
			</clipPath>
			<polyline class="st27" points="222.5,376 221,381.9 220.4,388.1 220.7,394.1 221.9,400.1 224,405.9 228.6,405.6 233.2,405.1 
				230.8,408.5 225.4,413.9 205.2,393.4 222.5,376 			"/>
		</g>
	</g>
	<g>
		<g>
			<defs>
				<polyline id="SVGID_57_" points="0,0 255.1,0 255.1,566.9 0,566.9 0,0 				"/>
			</defs>
			<clipPath id="SVGID_58_">
				<use xlink:href="#SVGID_57_"  style="overflow:visible;"/>
			</clipPath>
			<polyline class="st28" points="226.1,414.7 219.5,423.7 205.2,409.3 205.2,393.4 226.1,414.7 			"/>
		</g>
	</g>
	<g>
		<g>
			<defs>
				<polyline id="SVGID_59_" points="0,0 255.1,0 255.1,566.9 0,566.9 0,0 				"/>
			</defs>
			<clipPath id="SVGID_60_">
				<use xlink:href="#SVGID_59_"  style="overflow:visible;"/>
			</clipPath>
			<polyline class="st29" points="225.4,413.9 230.8,408.5 226.1,414.7 225.4,413.9 			"/>
		</g>
	</g>
	<g>
		<g>
			<defs>
				<polyline id="SVGID_61_" points="0,0 255.1,0 255.1,566.9 0,566.9 0,0 				"/>
			</defs>
			<clipPath id="SVGID_62_">
				<use xlink:href="#SVGID_61_"  style="overflow:visible;"/>
			</clipPath>
			<polyline class="st30" points="227.9,370.5 234.9,363.6 255.1,383.9 255.1,387.6 250.7,387.6 248,383.5 244.8,379.8 241.2,376.6 
				237,373.9 232.7,371.9 227.9,370.5 			"/>
		</g>
	</g>
	<g>
		<g>
			<defs>
				<polyline id="SVGID_63_" points="0,0 255.1,0 255.1,566.9 0,566.9 0,0 				"/>
			</defs>
			<clipPath id="SVGID_64_">
				<use xlink:href="#SVGID_63_"  style="overflow:visible;"/>
			</clipPath>
			<polyline class="st31" points="250.7,399.3 255.1,399.3 255.1,403 245.2,413.1 250.7,399.3 			"/>
		</g>
	</g>
	<g>
		<g>
			<defs>
				<polyline id="SVGID_65_" points="0,0 255.1,0 255.1,566.9 0,566.9 0,0 				"/>
			</defs>
			<clipPath id="SVGID_66_">
				<use xlink:href="#SVGID_65_"  style="overflow:visible;"/>
			</clipPath>
			<polyline class="st32" points="255.1,343.1 255.1,383.9 234.9,363.6 255.1,343.1 			"/>
		</g>
	</g>
	<g>
		<g>
			<defs>
				<polyline id="SVGID_67_" points="0,0 255.1,0 255.1,566.9 0,566.9 0,0 				"/>
			</defs>
			<clipPath id="SVGID_68_">
				<use xlink:href="#SVGID_67_"  style="overflow:visible;"/>
			</clipPath>
			<polyline class="st33" points="239.3,427.8 245.2,413.1 255.1,403 255.1,443.8 239.3,427.8 			"/>
		</g>
	</g>
	<g>
		<g>
			<defs>
				<polyline id="SVGID_69_" points="0,0 255.1,0 255.1,566.9 0,566.9 0,0 				"/>
			</defs>
			<clipPath id="SVGID_70_">
				<use xlink:href="#SVGID_69_"  style="overflow:visible;"/>
			</clipPath>
			<polyline class="st34" points="225.4,427.4 225.4,429.6 223.6,427.8 225.4,427.4 			"/>
		</g>
	</g>
	<g>
		<g>
			<defs>
				<polyline id="SVGID_71_" points="0,0 255.1,0 255.1,566.9 0,566.9 0,0 				"/>
			</defs>
			<clipPath id="SVGID_72_">
				<use xlink:href="#SVGID_71_"  style="overflow:visible;"/>
			</clipPath>
			<polyline class="st35" points="234.9,439.3 234.9,438.5 234.9,438.6 239.3,427.8 255.1,443.8 255.1,459.6 234.9,439.3 			"/>
		</g>
	</g>
	<g>
		<g>
			<defs>
				<polyline id="SVGID_73_" points="0,0 255.1,0 255.1,566.9 0,566.9 0,0 				"/>
			</defs>
			<clipPath id="SVGID_74_">
				<use xlink:href="#SVGID_73_"  style="overflow:visible;"/>
			</clipPath>
			<polyline class="st36" points="97.8,145.1 101.5,144.4 107.4,156 107.4,156.8 97.8,147.3 97.8,145.1 			"/>
		</g>
	</g>
	<g>
		<g>
			<defs>
				<polyline id="SVGID_75_" points="0,0 255.1,0 255.1,566.9 0,566.9 0,0 				"/>
			</defs>
			<clipPath id="SVGID_76_">
				<use xlink:href="#SVGID_75_"  style="overflow:visible;"/>
			</clipPath>
			<polyline class="st37" points="147.7,156 153.7,144.4 157.3,145.1 157.3,147.3 147.7,156.8 147.7,156 			"/>
		</g>
	</g>
	<g>
		<g>
			<defs>
				<polyline id="SVGID_77_" points="0,0 255.1,0 255.1,566.9 0,566.9 0,0 				"/>
			</defs>
			<clipPath id="SVGID_78_">
				<use xlink:href="#SVGID_77_"  style="overflow:visible;"/>
			</clipPath>
			<polyline class="st38" points="123.1,117 117.5,116.5 111.9,117 106.4,118.3 101.2,120.5 96.4,123.4 94.3,117.7 93,111.6 
				92.7,105.4 93.4,99.2 95,93.3 97.6,87.6 102.7,88.8 107.8,90.7 112.4,93.4 116.6,96.7 120.1,100.7 123.1,105.2 123.1,117 			"/>
		</g>
	</g>
	<g>
		<g>
			<defs>
				<polyline id="SVGID_79_" points="0,0 255.1,0 255.1,566.9 0,566.9 0,0 				"/>
			</defs>
			<clipPath id="SVGID_80_">
				<use xlink:href="#SVGID_79_"  style="overflow:visible;"/>
			</clipPath>
			<polyline class="st39" points="96.4,123.4 101.2,120.5 106.4,118.3 111.9,117 117.5,116.5 123.1,117 116.8,119.8 110.1,121.7 
				103.3,122.9 96.4,123.4 			"/>
		</g>
	</g>
	<g>
		<g>
			<defs>
				<polyline id="SVGID_81_" points="0,0 255.1,0 255.1,566.9 0,566.9 0,0 				"/>
			</defs>
			<clipPath id="SVGID_82_">
				<use xlink:href="#SVGID_81_"  style="overflow:visible;"/>
			</clipPath>
			<polyline class="st40" points="105.7,122.6 111.6,121.4 117.5,119.5 123.1,117 107.4,156.1 101.5,144.4 87.8,146.9 105.7,122.6 
							"/>
		</g>
	</g>
	<g>
		<g>
			<defs>
				<polyline id="SVGID_83_" points="0,0 255.1,0 255.1,566.9 0,566.9 0,0 				"/>
			</defs>
			<clipPath id="SVGID_84_">
				<use xlink:href="#SVGID_83_"  style="overflow:visible;"/>
			</clipPath>
			<polyline class="st41" points="123.1,117 123.1,105.2 132,105.2 132,117 123.1,117 			"/>
		</g>
	</g>
	<g>
		<g>
			<defs>
				<polyline id="SVGID_85_" points="0,0 255.1,0 255.1,566.9 0,566.9 0,0 				"/>
			</defs>
			<clipPath id="SVGID_86_">
				<use xlink:href="#SVGID_85_"  style="overflow:visible;"/>
			</clipPath>
			<polyline class="st42" points="132,117 132,105.2 135,100.7 138.5,96.7 142.7,93.4 147.3,90.7 152.4,88.8 157.5,87.6 160.1,93.3 
				161.7,99.2 162.3,105.4 162.1,111.6 160.8,117.7 158.7,123.4 153.9,120.5 148.7,118.3 143.2,117 137.6,116.5 132,117 			"/>
		</g>
	</g>
	<g>
		<g>
			<defs>
				<polyline id="SVGID_87_" points="0,0 255.1,0 255.1,566.9 0,566.9 0,0 				"/>
			</defs>
			<clipPath id="SVGID_88_">
				<use xlink:href="#SVGID_87_"  style="overflow:visible;"/>
			</clipPath>
			<polyline class="st43" points="158.7,123.4 151.8,122.9 145,121.7 138.3,119.8 132,117 137.6,116.5 143.2,117 148.7,118.3 
				153.9,120.5 158.7,123.4 			"/>
		</g>
	</g>
	<g>
		<g>
			<defs>
				<polyline id="SVGID_89_" points="0,0 255.1,0 255.1,566.9 0,566.9 0,0 				"/>
			</defs>
			<clipPath id="SVGID_90_">
				<use xlink:href="#SVGID_89_"  style="overflow:visible;"/>
			</clipPath>
			<polyline class="st44" points="149.4,122.6 167.3,146.9 153.7,144.4 147.7,156.1 132,117 137.6,119.5 143.5,121.4 149.4,122.6 
							"/>
		</g>
	</g>
	<g>
		<g>
			<defs>
				<polyline id="SVGID_91_" points="0,0 255.1,0 255.1,566.9 0,566.9 0,0 				"/>
			</defs>
			<clipPath id="SVGID_92_">
				<use xlink:href="#SVGID_91_"  style="overflow:visible;"/>
			</clipPath>
			<polyline class="st45" points="157.3,131.4 157.3,133.3 156.5,132.2 157.3,131.4 			"/>
		</g>
	</g>
	<g>
		<g>
			<defs>
				<polyline id="SVGID_93_" points="0,0 255.1,0 255.1,566.9 0,566.9 0,0 				"/>
			</defs>
			<clipPath id="SVGID_94_">
				<use xlink:href="#SVGID_93_"  style="overflow:visible;"/>
			</clipPath>
			<polyline class="st46" points="97.8,131.4 98.6,132.2 97.8,133.3 97.8,131.4 			"/>
		</g>
	</g>
	<g>
		<g>
			<defs>
				<polyline id="SVGID_95_" points="0,0 255.1,0 255.1,566.9 0,566.9 0,0 				"/>
			</defs>
			<clipPath id="SVGID_96_">
				<use xlink:href="#SVGID_95_"  style="overflow:visible;"/>
			</clipPath>
			<polyline class="st47" points="20.2,438.5 26.1,426.8 29.8,427.4 29.8,429.6 20.2,439.3 20.2,438.5 			"/>
		</g>
	</g>
	<g>
		<g>
			<defs>
				<polyline id="SVGID_97_" points="0,0 255.1,0 255.1,566.9 0,566.9 0,0 				"/>
			</defs>
			<clipPath id="SVGID_98_">
				<use xlink:href="#SVGID_97_"  style="overflow:visible;"/>
			</clipPath>
			<polyline class="st48" points="4.4,387.6 4.4,399.3 0,399.3 0,387.6 4.4,387.6 			"/>
		</g>
	</g>
	<g>
		<g>
			<defs>
				<polyline id="SVGID_99_" points="0,0 255.1,0 255.1,566.9 0,566.9 0,0 				"/>
			</defs>
			<clipPath id="SVGID_100_">
				<use xlink:href="#SVGID_99_"  style="overflow:visible;"/>
			</clipPath>
			<polyline class="st49" points="4.4,399.3 4.4,387.6 7.4,383.1 11,379.1 15.1,375.7 19.8,373.1 24.8,371.1 30,370 32.5,375.7 
				34.1,381.7 34.8,387.8 34.5,393.9 33.2,400 31.1,405.9 26.3,402.9 21.2,400.7 15.6,399.3 10.1,398.9 4.4,399.3 			"/>
		</g>
	</g>
	<g>
		<g>
			<defs>
				<polyline id="SVGID_101_" points="0,0 255.1,0 255.1,566.9 0,566.9 0,0 				"/>
			</defs>
			<clipPath id="SVGID_102_">
				<use xlink:href="#SVGID_101_"  style="overflow:visible;"/>
			</clipPath>
			<polyline class="st50" points="31.1,405.9 24.2,405.4 17.4,404.2 10.8,402.1 4.4,399.3 10.1,398.9 15.6,399.3 21.2,400.7 
				26.3,402.9 31.1,405.9 			"/>
		</g>
	</g>
	<g>
		<g>
			<defs>
				<polyline id="SVGID_103_" points="0,0 255.1,0 255.1,566.9 0,566.9 0,0 				"/>
			</defs>
			<clipPath id="SVGID_104_">
				<use xlink:href="#SVGID_103_"  style="overflow:visible;"/>
			</clipPath>
			<polyline class="st51" points="21.9,405.1 39.7,429.2 26.1,426.8 20.2,438.6 4.4,399.3 10.1,401.9 15.9,403.8 21.9,405.1 			"/>
		</g>
	</g>
	<g>
		<g>
			<defs>
				<polyline id="SVGID_105_" points="0,0 255.1,0 255.1,566.9 0,566.9 0,0 				"/>
			</defs>
			<clipPath id="SVGID_106_">
				<use xlink:href="#SVGID_105_"  style="overflow:visible;"/>
			</clipPath>
			<polyline class="st52" points="29.8,413.9 29.8,415.7 29,414.7 29.8,413.9 			"/>
		</g>
	</g>
	<g>
		<g>
			<defs>
				<polyline id="SVGID_107_" points="0,0 255.1,0 255.1,566.9 0,566.9 0,0 				"/>
			</defs>
			<clipPath id="SVGID_108_">
				<use xlink:href="#SVGID_107_"  style="overflow:visible;"/>
			</clipPath>
			<polyline class="st53" points="225.4,427.4 229.1,426.8 234.9,438.5 234.9,439.3 225.4,429.6 225.4,427.4 			"/>
		</g>
	</g>
	<g>
		<g>
			<defs>
				<polyline id="SVGID_109_" points="0,0 255.1,0 255.1,566.9 0,566.9 0,0 				"/>
			</defs>
			<clipPath id="SVGID_110_">
				<use xlink:href="#SVGID_109_"  style="overflow:visible;"/>
			</clipPath>
			<polyline class="st54" points="250.7,399.3 245,398.9 239.5,399.3 234,400.7 228.8,402.9 224,405.9 221.9,400 220.7,393.9 
				220.4,387.8 221,381.7 222.7,375.7 225.1,370 230.4,371.1 235.3,373.1 240,375.7 244.1,379.1 247.7,383.1 250.7,387.6 
				250.7,399.3 			"/>
		</g>
	</g>
	<g>
		<g>
			<defs>
				<polyline id="SVGID_111_" points="0,0 255.1,0 255.1,566.9 0,566.9 0,0 				"/>
			</defs>
			<clipPath id="SVGID_112_">
				<use xlink:href="#SVGID_111_"  style="overflow:visible;"/>
			</clipPath>
			<polyline class="st55" points="224,405.9 228.8,402.9 234,400.7 239.5,399.3 245,398.9 250.7,399.3 244.3,402.1 237.7,404.2 
				230.9,405.4 224,405.9 			"/>
		</g>
	</g>
	<g>
		<g>
			<defs>
				<polyline id="SVGID_113_" points="0,0 255.1,0 255.1,566.9 0,566.9 0,0 				"/>
			</defs>
			<clipPath id="SVGID_114_">
				<use xlink:href="#SVGID_113_"  style="overflow:visible;"/>
			</clipPath>
			<polyline class="st56" points="233.2,405.1 239.3,403.8 245,401.9 250.7,399.3 234.9,438.6 229.1,426.8 215.4,429.2 233.2,405.1 
							"/>
		</g>
	</g>
	<g>
		<g>
			<defs>
				<polyline id="SVGID_115_" points="0,0 255.1,0 255.1,566.9 0,566.9 0,0 				"/>
			</defs>
			<clipPath id="SVGID_116_">
				<use xlink:href="#SVGID_115_"  style="overflow:visible;"/>
			</clipPath>
			<polyline class="st57" points="250.7,399.3 250.7,387.6 255.1,387.6 255.1,399.3 250.7,399.3 			"/>
		</g>
	</g>
	<g>
		<g>
			<defs>
				<polyline id="SVGID_117_" points="0,0 255.1,0 255.1,566.9 0,566.9 0,0 				"/>
			</defs>
			<clipPath id="SVGID_118_">
				<use xlink:href="#SVGID_117_"  style="overflow:visible;"/>
			</clipPath>
			<polyline class="st58" points="225.4,413.9 226.1,414.7 225.4,415.7 225.4,413.9 			"/>
		</g>
	</g>
</g>
</svg>
