<?xml version="1.0" encoding="utf-8"?>
<!-- Generator: Adobe Illustrator 25.0.0, SVG Export Plug-In . SVG Version: 6.00 Build 0)  -->
<svg version="1.1" id="Layer_1" xmlns="http://www.w3.org/2000/svg" xmlns:xlink="http://www.w3.org/1999/xlink" x="0px" y="0px"
	 viewBox="0 0 640 480" style="enable-background:new 0 0 640 480;" xml:space="preserve">
<style type="text/css">
	.st0{fill:#0071BC;}
	.st1{fill:#D4EEF9;}
	.st2{fill:#338DC9;}
	.st3{fill:#E6E6E6;}
</style>
<g>
	<path class="st0" d="M239.5,62.49c-7.01,0-12.69,5.68-12.69,12.69s5.68,12.69,12.69,12.69c7.01,0,12.69-5.68,12.69-12.69
		C252.18,68.17,246.5,62.5,239.5,62.49z M239.5,81.52c-3.5,0-6.34-2.84-6.34-6.34s2.84-6.34,6.34-6.34c3.5,0,6.34,2.84,6.34,6.34
		C245.84,78.68,243,81.52,239.5,81.52z M398.11,2.22H233.15c-19.26,0.02-34.87,15.63-34.89,34.89v406.03
		c0.02,19.26,15.63,34.87,34.89,34.89h164.95c19.26-0.02,34.87-15.63,34.89-34.89V37.11C432.98,17.85,417.37,2.24,398.11,2.22z
		 M271.22,43.46c3.5,0,6.34-2.84,6.34-6.34c0-3.5-2.84-6.34-6.34-6.34s-6.34,2.84-6.34,6.34C264.88,40.62,267.72,43.46,271.22,43.46
		z M239.5,30.77c-7.01,0-12.69,5.68-12.69,12.69s5.68,12.69,12.69,12.69c7.01,0,12.69-5.68,12.69-12.69
		C252.18,36.45,246.5,30.78,239.5,30.77z M239.5,49.8c-3.5,0-6.34-2.84-6.34-6.34s2.84-6.34,6.34-6.34c3.5,0,6.34,2.84,6.34,6.34
		C245.84,46.96,243,49.8,239.5,49.8z M274.39,18.08h-38.07c-12.26,0.01-22.19,9.95-22.21,22.21v38.07
		c0.01,12.26,9.95,22.19,22.21,22.21h38.07c12.26-0.01,22.19-9.95,22.2-22.21V40.28C296.58,28.03,286.65,18.09,274.39,18.08z
		 M290.25,78.35c-0.01,8.76-7.1,15.85-15.86,15.86h-38.07c-8.76-0.01-15.85-7.1-15.86-15.86V40.28c0.01-8.76,7.1-15.85,15.86-15.86
		h38.07c8.76,0.01,15.85,7.1,15.86,15.86V78.35z M271.22,46.63c-7.01,0-12.69,5.68-12.69,12.69s5.68,12.69,12.69,12.69
		c7.01,0,12.69-5.68,12.69-12.69C283.9,52.31,278.23,46.64,271.22,46.63z M271.22,65.66c-3.5,0-6.34-2.84-6.34-6.34
		c0-3.5,2.84-6.34,6.34-6.34s6.34,2.84,6.34,6.34C277.56,62.82,274.72,65.66,271.22,65.66z M271.22,78.35
		c-1.75,0-3.17,1.42-3.17,3.17c0,1.75,1.42,3.17,3.17,3.17s3.17-1.42,3.17-3.17C274.39,79.77,272.97,78.35,271.22,78.35z"/>
	<g transform="translate(0.000000,1280.000000) scale(0.100000,-0.100000)">
		<path class="st1" d="M3248.85,10844.22c-32.77-3.78-79.15-32.69-102.17-63.61c-13.29-17.71-21.1-34.62-27.86-60.06l-3.38-12.72
			l0.16-13.53c0.16-7.41,0.56-14.33,0.97-15.46c1.05-2.66,3.06-3.06,17.23-3.14c11.76-0.08,12.48,0,22.54,2.98
			c26.89,7.81,46.62,19.56,60.63,36.23c3.38,4.11,8.45,9.58,11.11,12.32c8.86,8.7,20.21,28.02,26.49,44.77
			c6.28,16.83,9.1,32.45,9.9,54.67l0.48,14.25l-2.09,2.09C3260.53,10845.35,3259.24,10845.43,3248.85,10844.22z"/>
		<path class="st1" d="M3241.36,10677.8c-15.94-0.81-58.86-12.72-89.69-24.8c-18.68-7.33-18.68-7.33-22.38-7.97
			c-6.44-1.05-22.22,3.54-49.36,14.49c-14.41,5.72-29.23,10.06-51.13,15.06c-9.18,2.01-24.4,2.25-31,0.4
			c-2.66-0.72-11.03-2.42-18.6-3.7c-16.26-2.9-25.44-5.72-37.68-11.75c-36.96-18.04-62.16-43.96-82.13-84.54
			c-8.86-17.88-15.38-35.35-20.21-53.95c-7.17-27.62-7.33-80.6-0.32-112.72c0.8-3.95,1.53-8.62,1.53-10.47
			c0-3.86,0.72-6.76,7.49-33.41c6.28-24.64,5.64-22.62,17.63-52.74c16.83-42.27,22.14-51.61,56.52-99.03
			c14.09-19.4,21.26-28.26,31.64-38.81c10.87-11.11,19.65-17.55,32.05-23.67c14.01-6.84,20.13-8.37,33.01-8.29
			c16.51,0,29.79,3.38,55.07,14.01c15.94,6.68,16.99,7,45.97,12.96c8.7,1.85,16.75,1.69,28.99-0.32c4.19-0.64,10.47-1.61,13.85-2.09
			c6.84-0.97,13.77-3.22,31.64-10.39c21.58-8.7,36.8-12.56,52.74-13.53c23.19-1.45,45.57,8.86,69.49,31.8
			c24.4,23.59,47.18,55.88,70.21,99.44c6.2,11.75,16.1,35.83,17.79,43.08c0.72,2.9,1.93,6.52,2.82,7.97
			c0.81,1.45,1.53,3.46,1.53,4.35c0,2.9-5.88,7.49-16.26,12.72c-19.57,10.06-38.81,27.29-51.77,46.7
			c-9.26,13.93-18.6,34.78-20.93,47.1c-3.95,20.29-5.07,42.51-2.82,57.97c0.56,4.03,2.58,12.48,4.51,18.92
			c8.29,27.94,14.01,39.13,26.97,52.98c3.95,4.11,7.17,7.89,7.17,8.21c0,1.37,19.73,17.87,24.56,20.53
			c2.66,1.53,6.04,3.87,7.49,5.31c4.43,4.35,3.78,6.04-7.33,19.08c-14.9,17.47-33.66,31.8-55.72,42.51
			c-13.77,6.68-23.27,9.98-36.55,12.72C3274.54,10676.83,3254.25,10678.52,3241.36,10677.8z"/>
	</g>
	<path class="st2" d="M274.99,19.18h-38.07c-12.26,0.01-22.19,9.95-22.21,22.21v38.07c0.01,12.26,9.95,22.19,22.21,22.21h38.07
		c12.26-0.01,22.19-9.95,22.21-22.21V41.38C297.18,29.13,287.24,19.19,274.99,19.18z"/>
	<path class="st3" d="M240.31,64.43c-7.01,0-12.69,5.68-12.69,12.69s5.68,12.69,12.69,12.69c7.01,0,12.69-5.68,12.69-12.69
		C252.99,70.11,247.32,64.44,240.31,64.43z M272.04,45.4c3.5,0,6.34-2.84,6.34-6.34c0-3.5-2.84-6.34-6.34-6.34s-6.34,2.84-6.34,6.34
		C265.69,42.56,268.53,45.4,272.04,45.4z M240.31,32.71c-7.01,0-12.69,5.68-12.69,12.69s5.68,12.69,12.69,12.69
		c7.01,0,12.69-5.68,12.69-12.69C252.99,38.39,247.32,32.72,240.31,32.71z M272.04,48.57c-7.01,0-12.69,5.68-12.69,12.69
		s5.68,12.69,12.69,12.69c7.01,0,12.69-5.68,12.69-12.69C284.72,54.25,279.04,48.58,272.04,48.57z M272.04,80.29
		c-1.75,0-3.17,1.42-3.17,3.17c0,1.75,1.42,3.17,3.17,3.17s3.17-1.42,3.17-3.17C275.21,81.71,273.79,80.29,272.04,80.29z"/>
</g>
</svg>
