<?xml version="1.0" encoding="utf-8"?>
<!-- Generator: Adobe Illustrator 25.0.0, SVG Export Plug-In . SVG Version: 6.00 Build 0)  -->
<svg version="1.1" id="Layer_1" xmlns="http://www.w3.org/2000/svg" xmlns:xlink="http://www.w3.org/1999/xlink" x="0px" y="0px"
	 viewBox="0 0 640 480" style="enable-background:new 0 0 640 480;" xml:space="preserve">
<style type="text/css">
	.st0{fill:#9CD4CD;}
	.st1{fill:#F76E75;}
</style>
<g>
	<g>
		<g>
			<g>
				<path class="st0" d="M300.25,1.65c-1.89-1.45-4.32-2.01-6.66-1.42L167.48,29.06c-3,0.67-5.32,2.96-6.03,5.95
					c-11.47,46.6,17.7,143.39,23.84,162.84L112.85,301.8l121.4,80.67l89.68-95.5c6.24-5.6,41.61-41.18,12.71-97.6
					c-27.62-54.06-33.3-180.39-33.34-181.66C303.3,5.32,302.14,3.1,300.25,1.65z"/>
			</g>
		</g>
		<path class="st1" d="M112.85,301.8l121.4,80.67l-13.88,14.65c-5.83,6.11-11.62,13.03-24.93,19.48c-8,3.88-15.44,6.14-21.54,7.5
			c-5.3,0.66-23.62,2.26-41.56-9.34c-13.33-8.62-19.71-20.18-22.23-25.49c-3.1-6.32-6.9-15.93-8.5-28.16
			c-1.37-10.42-0.69-19.31,0.31-25.71c0.71-5.58,1.96-12.08,4.18-19.14C107.55,311.64,111.19,305.46,112.85,301.8z"/>
		<path d="M233.09,381.91"/>
		<path d="M186.62,418.22"/>
		<path d="M257.43,316.41"/>
		<g>
			<g>
				<path class="st1" d="M167.51,305.49c10.9,0,21.34-9.58,20.84-20.84c-0.51-11.29-9.15-20.84-20.84-20.84
					c-10.9,0-21.34,9.58-20.84,20.84C147.17,295.94,155.82,305.49,167.51,305.49L167.51,305.49z"/>
			</g>
		</g>
		<g>
			<g>
				<path class="st1" d="M223.9,338.45c10.9,0,21.34-9.58,20.84-20.84c-0.51-11.29-9.15-20.84-20.84-20.84
					c-10.9,0-21.34,9.58-20.84,20.84C203.57,328.9,212.22,338.45,223.9,338.45L223.9,338.45z"/>
			</g>
		</g>
		<g>
			<g>
				<path class="st1" d="M218.39,247.06c10.9,0,21.34-9.58,20.84-20.84c-0.51-11.29-9.15-20.84-20.84-20.84
					c-10.9,0-21.34,9.58-20.84,20.84C198.06,237.51,206.71,247.06,218.39,247.06L218.39,247.06z"/>
			</g>
		</g>
		<g>
			<g>
				<path class="st1" d="M292.01,207.51c10.9,0,21.34-9.58,20.84-20.84c-0.51-11.29-9.15-20.84-20.84-20.84
					c-10.9,0-21.34,9.58-20.84,20.84C271.68,197.97,280.33,207.51,292.01,207.51L292.01,207.51z"/>
			</g>
		</g>
		<g>
			<g>
				<path class="st1" d="M214.97,175.66c10.9,0,21.34-9.58,20.84-20.84c-0.51-11.29-9.15-20.84-20.84-20.84
					c-10.9,0-21.34,9.58-20.84,20.84C194.64,166.11,203.29,175.66,214.97,175.66L214.97,175.66z"/>
			</g>
		</g>
		<g>
			<g>
				<path class="st1" d="M273.56,141.49c10.9,0,21.34-9.58,20.84-20.84c-0.51-11.29-9.15-20.84-20.84-20.84
					c-10.9,0-21.34,9.58-20.84,20.84C253.23,131.94,261.88,141.49,273.56,141.49L273.56,141.49z"/>
			</g>
		</g>
		<g>
			<g>
				<path class="st1" d="M200.88,108.21c10.9,0,21.34-9.58,20.84-20.84c-0.51-11.29-9.15-20.84-20.84-20.84
					c-10.9,0-21.34,9.58-20.84,20.84C180.55,98.66,189.2,108.21,200.88,108.21L200.88,108.21z"/>
			</g>
		</g>
		<g>
			<g>
				<path class="st1" d="M277.66,280.87c10.9,0,21.34-9.58,20.84-20.84c-0.51-11.29-9.15-20.84-20.84-20.84
					c-10.9,0-21.34,9.58-20.84,20.84C257.33,271.32,265.98,280.87,277.66,280.87L277.66,280.87z"/>
			</g>
		</g>
	</g>
	<g>
		<g>
			<path class="st1" d="M261.04,72.56c10.9,0,21.34-9.58,20.84-20.84c-0.51-11.29-9.15-20.84-20.84-20.84
				c-10.9,0-21.34,9.58-20.84,20.84C240.71,63.01,249.36,72.56,261.04,72.56L261.04,72.56z"/>
		</g>
	</g>
	<g>
		<g>
			<g>
				<path class="st0" d="M486.72,57.09c-1.89-1.45-4.32-2.01-6.66-1.42L353.95,84.5c-3,0.67-5.32,2.96-6.03,5.95
					c-11.47,46.6,17.7,143.39,23.84,162.84l-72.44,103.95l121.4,80.67l89.68-95.5c6.24-5.6,41.61-41.18,12.71-97.6
					c-27.62-54.06-33.3-180.39-33.34-181.66C489.77,60.76,488.61,58.53,486.72,57.09z"/>
			</g>
		</g>
		<path class="st1" d="M299.32,357.24l121.4,80.67l-13.88,14.65c-5.83,6.11-11.62,13.03-24.93,19.48c-8,3.88-15.44,6.14-21.54,7.5
			c-5.3,0.66-23.62,2.26-41.56-9.34c-13.33-8.62-19.71-20.18-22.23-25.49c-3.1-6.32-6.9-15.93-8.5-28.16
			c-1.37-10.42-0.69-19.31,0.31-25.71c0.71-5.58,1.96-12.08,4.18-19.14C294.02,367.08,297.66,360.89,299.32,357.24z"/>
		<path d="M419.56,437.35"/>
		<path d="M373.09,473.66"/>
		<path d="M443.9,371.85"/>
		<g>
			<g>
				<path class="st1" d="M353.98,360.93c10.9,0,21.34-9.58,20.84-20.84c-0.51-11.29-9.15-20.84-20.84-20.84
					c-10.9,0-21.34,9.58-20.84,20.84C333.64,351.38,342.29,360.93,353.98,360.93L353.98,360.93z"/>
			</g>
		</g>
		<g>
			<g>
				<path class="st1" d="M410.37,393.89c10.9,0,21.34-9.58,20.84-20.84c-0.51-11.29-9.15-20.84-20.84-20.84
					c-10.9,0-21.34,9.58-20.84,20.84C390.04,384.34,398.69,393.89,410.37,393.89L410.37,393.89z"/>
			</g>
		</g>
		<g>
			<g>
				<path class="st1" d="M404.86,302.49c10.9,0,21.34-9.58,20.84-20.84c-0.51-11.29-9.15-20.84-20.84-20.84
					c-10.9,0-21.34,9.58-20.84,20.84C384.53,292.95,393.18,302.49,404.86,302.49L404.86,302.49z"/>
			</g>
		</g>
		<g>
			<g>
				<path class="st1" d="M478.48,262.95c10.9,0,21.34-9.58,20.84-20.84c-0.51-11.29-9.15-20.84-20.84-20.84
					c-10.9,0-21.34,9.58-20.84,20.84C458.15,253.4,466.8,262.95,478.48,262.95L478.48,262.95z"/>
			</g>
		</g>
		<g>
			<g>
				<path class="st1" d="M401.44,231.09c10.9,0,21.34-9.58,20.84-20.84c-0.51-11.29-9.15-20.84-20.84-20.84
					c-10.9,0-21.34,9.58-20.84,20.84C381.11,221.55,389.76,231.09,401.44,231.09L401.44,231.09z"/>
			</g>
		</g>
		<g>
			<g>
				<path class="st1" d="M460.03,196.93c10.9,0,21.34-9.58,20.84-20.84c-0.51-11.29-9.15-20.84-20.84-20.84
					c-10.9,0-21.34,9.58-20.84,20.84C439.7,187.38,448.35,196.93,460.03,196.93L460.03,196.93z"/>
			</g>
		</g>
		<g>
			<g>
				<path class="st1" d="M387.35,163.65c10.9,0,21.34-9.58,20.84-20.84c-0.51-11.29-9.15-20.84-20.84-20.84
					c-10.9,0-21.34,9.58-20.84,20.84C367.02,154.1,375.67,163.65,387.35,163.65L387.35,163.65z"/>
			</g>
		</g>
		<g>
			<g>
				<path class="st1" d="M464.13,336.31c10.9,0,21.34-9.58,20.84-20.84c-0.51-11.29-9.15-20.84-20.84-20.84
					c-10.9,0-21.34,9.58-20.84,20.84C443.8,326.76,452.45,336.31,464.13,336.31L464.13,336.31z"/>
			</g>
		</g>
	</g>
	<g>
		<g>
			<path class="st1" d="M447.51,128c10.9,0,21.34-9.58,20.84-20.84c-0.51-11.29-9.15-20.84-20.84-20.84
				c-10.9,0-21.34,9.58-20.84,20.84C427.18,118.45,435.83,128,447.51,128L447.51,128z"/>
		</g>
	</g>
</g>
</svg>
