<?xml version="1.0" encoding="utf-8"?>
<!-- Generator: Adobe Illustrator 25.0.0, SVG Export Plug-In . SVG Version: 6.00 Build 0)  -->
<svg version="1.1" id="Layer_1" xmlns="http://www.w3.org/2000/svg" xmlns:xlink="http://www.w3.org/1999/xlink" x="0px" y="0px"
	 viewBox="0 0 101 163.6" style="enable-background:new 0 0 101 163.6;" xml:space="preserve">
<style type="text/css">
	.st0{fill-rule:evenodd;clip-rule:evenodd;fill:#EE93B5;}
	.st1{fill-rule:evenodd;clip-rule:evenodd;fill:#CB7185;}
	.st2{fill-rule:evenodd;clip-rule:evenodd;fill:#F797BE;}
	.st3{fill-rule:evenodd;clip-rule:evenodd;fill:#F396B8;}
	.st4{fill-rule:evenodd;clip-rule:evenodd;fill:#D37387;}
	.st5{fill-rule:evenodd;clip-rule:evenodd;fill:#D2F0EF;}
	.st6{fill-rule:evenodd;clip-rule:evenodd;fill:#9ED3D5;}
	.st7{fill-rule:evenodd;clip-rule:evenodd;fill:#D9F7F3;}
	.st8{fill-rule:evenodd;clip-rule:evenodd;fill:#DBFAFA;}
</style>
<g>
	<polyline class="st0" points="2.4,115.5 2.4,68.8 14.5,80.8 10.3,86.4 18.6,84.9 50.5,116.9 50.5,163.6 2.4,115.5 	"/>
	<polyline class="st1" points="50.5,116.9 82.5,84.9 90.7,86.4 86.5,80.8 98.6,68.8 98.6,115.5 50.5,163.6 50.5,116.9 	"/>
	<polyline class="st2" points="17.5,33 16,38.9 15.4,45 15.7,51.2 16.9,57.2 19,62.9 23.7,62.7 28.4,62.2 25.8,65.6 20.4,71 0,50.5 
		17.5,33 	"/>
	<polyline class="st3" points="21.2,71.8 14.5,80.8 0,66.4 0,50.5 21.2,71.8 	"/>
	<polyline class="st4" points="50.5,101 66.5,85 70.9,95.7 71,95.7 71,96.5 50.5,116.9 50.5,101 	"/>
	<polyline class="st5" points="20.4,71 25.8,65.6 21.2,71.8 20.4,71 	"/>
	<polyline class="st5" points="30.1,20.4 50.5,40.9 71,20.4 78,27.5 73.3,28.9 68.8,30.9 64.7,33.6 60.9,36.8 57.7,40.5 55,44.6 
		46,44.6 43.3,40.5 40.1,36.8 36.4,33.6 32.2,30.9 27.8,28.9 23,27.5 30.1,20.4 	"/>
	<polyline class="st5" points="75.2,65.6 80.6,71 79.8,71.8 75.2,65.6 	"/>
	<polyline class="st5" points="46,56.4 55,56.4 60.6,70.2 50.5,60.1 40.4,70.2 46,56.4 	"/>
	<polyline class="st2" points="50.5,0 71,20.4 50.5,40.9 30.1,20.4 50.5,0 	"/>
	<polyline class="st2" points="72.7,62.2 77.3,62.7 82,62.9 84.1,57.2 85.3,51.2 85.7,45 85,38.9 83.5,33 101,50.5 80.6,71 
		75.2,65.6 72.7,62.2 	"/>
	<polyline class="st2" points="34.5,85 40.4,70.2 50.5,60.1 60.6,70.2 66.5,85 50.5,101 34.5,85 	"/>
	<polyline class="st3" points="20.4,84.6 20.4,86.8 18.6,84.9 20.4,84.6 	"/>
	<polyline class="st3" points="30.1,96.5 30.1,95.7 30.1,95.7 34.5,85 50.5,101 50.5,116.9 30.1,96.5 	"/>
	<polyline class="st4" points="80.6,71 101,50.5 101,66.4 86.5,80.8 80.6,72.8 80.6,71 	"/>
	<polyline class="st4" points="80.6,84.6 82.5,84.9 80.6,86.8 80.6,84.6 	"/>
	<polyline class="st5" points="20.4,84.6 24.2,83.9 30.1,95.7 30.1,96.5 20.4,86.8 20.4,84.6 	"/>
	<polyline class="st6" points="71,95.7 76.9,83.9 80.6,84.6 80.6,86.8 71,96.5 71,95.7 	"/>
	<polyline class="st7" points="46,56.4 40.3,56 34.7,56.4 29.1,57.8 23.9,59.9 19,62.9 16.9,57.1 15.7,51 15.4,44.8 16,38.6 
		17.7,32.6 20.2,27 25.5,28.1 30.5,30 35.2,32.7 39.4,36.1 43,40.1 46,44.6 46,56.4 	"/>
	<polyline class="st6" points="19,62.9 23.9,59.9 29.1,57.8 34.7,56.4 40.3,56 46,56.4 39.6,59.2 32.9,61.2 26,62.5 19,62.9 	"/>
	<polyline class="st7" points="28.4,62.2 34.4,60.8 40.3,58.9 46,56.4 30.1,95.7 24.2,83.9 10.3,86.4 28.4,62.2 	"/>
	<polyline class="st7" points="46,56.4 46,44.6 55,44.6 55,56.4 46,56.4 	"/>
	<polyline class="st8" points="55,56.4 55,44.6 58,40.1 61.6,36.1 65.8,32.7 70.5,30 75.6,28.1 80.8,27 83.4,32.6 85,38.6 
		85.7,44.8 85.4,51 84.1,57.1 82,62.9 77.1,59.9 71.9,57.8 66.3,56.4 60.7,56 55,56.4 	"/>
	<polyline class="st6" points="82,62.9 75,62.5 68.1,61.2 61.4,59.2 55,56.4 60.7,56 66.3,56.4 71.9,57.8 77.1,59.9 82,62.9 	"/>
	<polyline class="st7" points="72.7,62.2 90.7,86.4 76.9,83.9 70.9,95.7 55,56.4 60.7,58.9 66.6,60.8 72.7,62.2 	"/>
	<polyline class="st6" points="80.6,71 80.6,72.8 79.8,71.8 80.6,71 	"/>
	<polyline class="st5" points="20.4,71 21.2,71.8 20.4,72.8 20.4,71 	"/>
</g>
</svg>
